<svg xmlns="http://www.w3.org/2000/svg" viewBox="0 12.5 222.8000030517578 34.5" data-asc="0.928" width="222.8000030517578" height="34.5"><defs/><g fill="#000000"><g transform="translate(0, 0)"><path d="M0 46.40L14.85 12.50L15.60 12.50L30.45 46.40L25 46.40L21.25 37.40L6.40 37.40L2.70 46.40L0 46.40M7.15 35.50L20.45 35.50L13.85 19.30L7.15 35.50ZM35.05 46.40L36.90 13.30L41.55 13.30L53.10 38.55L64.15 13.30L69.25 13.30L71.10 46.40L66 46.40L64.65 17.95L64.45 17.95L51.85 46.40L51.15 46.40L38.80 19.10L38.60 19.10L37.25 46.40L35.05 46.40ZM79.90 46.40L79.90 13.30L99.95 13.30L99.45 16.65L90.15 15.10Q88.70 15.10 87.45 15.33Q86.20 15.55 84.75 15.95L84.75 28.10L95.85 28.10L95.85 30.00L84.75 30.00L84.75 44.60L100.25 43.05L99.75 46.40L79.90 46.40ZM108 46.40L108 13.30L112.90 13.30L112.90 43.70Q114.20 44.05 115.53 44.33Q116.85 44.60 117.80 44.60L126.85 43.05L126.25 46.40L108 46.40ZM132.35 46.40L132.35 13.30L136.95 13.30L136.95 46.40L132.35 46.40ZM145.95 46.40L145.95 13.30L156.70 13.30Q160 13.30 162.60 14.33Q165.20 15.35 166.70 17.25Q168.20 19.15 168.20 21.90Q168.20 25.15 166.55 27.33Q164.90 29.50 161.95 30.58Q159 31.65 155.10 31.65L150.80 31.65L150.80 46.40L145.95 46.40M150.80 30.20L155.25 30.20Q157.80 30.20 159.35 29.30Q160.90 28.40 161.70 27.05Q162.50 25.70 162.77 24.35Q163.05 23.00 163.05 22.15Q163.05 21.85 162.92 20.95Q162.80 20.05 162.27 18.90Q161.75 17.75 160.63 16.70Q159.50 15.65 157.50 15.10Q155.95 15.10 154 15.35Q152.05 15.60 150.80 15.95L150.80 30.20ZM167 46.40L181.85 12.50L182.60 12.50L197.45 46.40L192 46.40L188.25 37.40L173.40 37.40L169.70 46.40L167 46.40M174.15 35.50L187.45 35.50L180.85 19.30L174.15 35.50ZM211.05 47.00Q208.10 47.00 205.47 46.30Q202.85 45.60 201.40 45.05L201.40 42.70Q202.25 43.10 203.70 43.73Q205.15 44.35 206.90 44.80Q208.65 45.25 210.30 45.25Q213.60 45.25 215.63 43.53Q217.65 41.80 217.65 38.65Q217.65 36.70 216.50 35.30Q215.35 33.90 213.52 32.75Q211.70 31.60 209.65 30.53Q207.60 29.45 205.77 28.18Q203.95 26.90 202.80 25.18Q201.65 23.45 201.65 21.10Q201.65 19.15 202.70 17.23Q203.75 15.30 206.05 14.00Q208.35 12.70 212.10 12.70Q214.15 12.70 216.55 13.20Q218.95 13.70 220.70 14.25L220.20 17.65Q217.30 16.40 214.45 15.58Q211.60 14.75 208.65 14.75Q207.20 15.45 206.63 16.58Q206.05 17.70 206.05 19.05Q206.05 21.05 207.25 22.58Q208.45 24.10 210.38 25.38Q212.30 26.65 214.42 27.85Q216.55 29.05 218.47 30.45Q220.40 31.85 221.60 33.60Q222.80 35.35 222.80 37.70Q222.80 40.30 221.50 42.43Q220.20 44.55 217.60 45.78Q215 47.00 211.05 47.00Z"/></g></g></svg>